<svg id="Layer_1" data-name="Layer 1" xmlns="http://www.w3.org/2000/svg" xmlns:xlink="http://www.w3.org/1999/xlink" viewBox="0 0 182.63 195.4"><defs><style>.cls-1,.cls-10,.cls-5,.cls-9{fill:none;}.cls-2,.cls-3{fill:#d64d28;}.cls-2{stroke:#fff;stroke-width:20px;}.cls-10,.cls-2,.cls-5,.cls-9{stroke-miterlimit:10;}.cls-4{clip-path:url(#clip-path);}.cls-5,.cls-9{stroke:#901a1d;}.cls-5{stroke-width:3.69px;}.cls-6{fill:#dd7044;fill-rule:evenodd;}.cls-7{fill:#9a1e21;}.cls-8{fill:#fdf4df;}.cls-9{stroke-width:5.28px;}.cls-10{stroke:#f7c969;stroke-width:1.06px;}</style><clipPath id="clip-path"><rect class="cls-1" x="4.65" y="4.65" width="173.33" height="181.88"/></clipPath></defs><title>logo-js</title><path class="cls-2" d="M172.63,91.32a81.38,81.38,0,1,0-45.18,72.82l1.59,0.71,25.51,11.48-8.85-23.15c16-14.28,26.2-34.12,26.88-56.16,0-.78.06-1.56,0.06-2.35,0-.38,0-0.74,0-1.12,0-.75,0-1.49,0-2.24"/><path class="cls-3" d="M172.63,91.32a81.38,81.38,0,1,0-45.18,72.82l1.59,0.71,25.51,11.48-8.85-23.15c16-14.28,26.2-34.12,26.88-56.16,0-.78.06-1.56,0.06-2.35,0-.38,0-0.74,0-1.12,0-.75,0-1.49,0-2.24"/><g class="cls-4"><path class="cls-5" d="M172.63,91.32a81.38,81.38,0,1,0-45.18,72.82l1.59,0.71,25.51,11.48-8.85-23.15c16-14.28,26.2-34.12,26.88-56.16,0-.78.06-1.56,0.06-2.35,0-.38,0-0.74,0-1.12,0-.75,0-1.49,0-2.24h0Z"/></g><path class="cls-6" d="M99.62,10.77c1.6,3.4-3.1,4.45-3.85,2.05-0.7-2.24,1.87-3.71,3.85-2.05"/><path class="cls-6" d="M84.47,10.51c1.15-.41,2.16,0,2.31,1.29,0.52,4.56-6.5.22-2.31-1.29"/><path class="cls-6" d="M108.35,11.54c1.41,0.56,3.21.73,4.62,1.28-0.43,2.4-5.56,2.06-4.62-1.28"/><path class="cls-6" d="M72.91,11.8c2,1.08-2.24,2.63-2.05.51a3.46,3.46,0,0,0,2.05-.51"/><path class="cls-6" d="M116.06,16.16c1.58-.62,3.19-0.11,3.6,1.28,1.24,4.21-5.81,5.2-5.14.51a2.11,2.11,0,0,1,1.54-1.8"/><path class="cls-6" d="M103.22,16.42a2.41,2.41,0,0,1,3.34,1c1,2.89-3.6,4.95-4.63,2.05a2.38,2.38,0,0,1,1.29-3.08"/><path class="cls-6" d="M90.63,16.68a2,2,0,0,1,2.82,1c0.77,2.69-3.29,4.15-4.11,1.54-0.58-1.88.2-2.11,1.29-2.57"/><path class="cls-6" d="M78,16.93c1.15-.41,2.16,0,2.31,1.29,0.52,4.55-6.5.22-2.31-1.29"/><path class="cls-6" d="M64.7,19.5a1.47,1.47,0,0,1,2.06-2.05A1.47,1.47,0,0,1,64.7,19.5"/><path class="cls-6" d="M127.1,18.22c1.81,0.5,3,1.64,4.62,2.31-1.52,1.77-5.13.35-4.62-2.31"/><path class="cls-6" d="M122.48,22.33c2.55-.87,3.59.49,3.85,1.8,0.82,4.21-5,4.87-5.65,1.54-0.43-2.19.35-2.84,1.8-3.34"/><path class="cls-6" d="M109.64,22.58c1.58-.62,3.19-0.11,3.6,1.28,1.23,4.21-5.81,5.21-5.14.51a2.11,2.11,0,0,1,1.54-1.8"/><path class="cls-6" d="M139.43,25.92c-1.8,4.67-9.25.29-4.88-3.6,1.68,1.15,3.7,2,4.88,3.6"/><path class="cls-6" d="M96.8,22.84a2.41,2.41,0,0,1,3.34,1c1,2.89-3.59,4.95-4.63,2.05a2.38,2.38,0,0,1,1.29-3.08"/><path class="cls-6" d="M84.21,23.1a2,2,0,0,1,2.82,1c0.76,2.69-3.29,4.15-4.11,1.54-0.58-1.88.2-2.11,1.29-2.57"/><path class="cls-6" d="M71.63,23.35c1.15-.41,2.16,0,2.31,1.29,0.52,4.55-6.5.22-2.31-1.29"/><path class="cls-6" d="M58.28,25.92a1.47,1.47,0,0,1,2.06-2.05,1.47,1.47,0,0,1-2.06,2.05"/><path class="cls-6" d="M47.23,25.15c-0.51,0-.33.7-1,0.51a0.76,0.76,0,0,0-.51-0.51,0.79,0.79,0,1,1,1.54,0"/><path class="cls-6" d="M146.1,31.06c-0.31,5.19-6.67,4-6.67.26,0-1.74,1.34-3.28,2.57-3.34,1.74-.08,2.79,2.5,4.11,3.08"/><path class="cls-6" d="M128.89,28.49c4.45-1.4,5.59,5.65,1.28,5.91-2.66.16-5.35-4.63-1.28-5.91"/><path class="cls-6" d="M116.06,28.75c2.55-.88,3.6.49,3.85,1.8,0.83,4.21-5,4.87-5.65,1.54-0.43-2.19.35-2.84,1.8-3.34"/><path class="cls-6" d="M103.22,29c1.58-.62,3.19-0.11,3.6,1.28,1.24,4.21-5.81,5.2-5.14.52a2.11,2.11,0,0,1,1.54-1.8"/><path class="cls-6" d="M90.38,29.26a2.41,2.41,0,0,1,3.34,1c1,2.89-3.6,4.95-4.62,2.06a2.38,2.38,0,0,1,1.29-3.08"/><path class="cls-6" d="M77.79,29.52a2,2,0,0,1,2.82,1c0.77,2.69-3.3,4.15-4.11,1.54-0.58-1.88.2-2.11,1.29-2.57"/><path class="cls-6" d="M65.21,29.77c1.15-.41,2.16,0,2.31,1.28,0.52,4.56-6.5.22-2.31-1.28"/><path class="cls-6" d="M51.86,32.34a1.47,1.47,0,0,1,2.05-2.06,1.47,1.47,0,0,1-2.05,2.06"/><path class="cls-6" d="M40.82,31.57c-0.51,0-.33.7-1,0.51a0.76,0.76,0,0,0-.51-0.51,0.79,0.79,0,1,1,1.54,0"/><path class="cls-6" d="M152.78,37.73a3.61,3.61,0,1,1-3.85-3.6c1.74,0.74,2.49,2.48,3.85,3.6"/><path class="cls-6" d="M135.57,34.65a3.25,3.25,0,0,1,4.11,2.82c0.26,4.43-6.68,5.08-6.68.26,0-1.69.72-2.66,2.57-3.08"/><path class="cls-6" d="M122.48,34.91c4.45-1.4,5.58,5.65,1.28,5.91-2.66.16-5.36-4.63-1.28-5.91"/><path class="cls-6" d="M109.64,35.17c2.55-.88,3.6.48,3.85,1.8,0.82,4.21-5,4.87-5.65,1.54-0.43-2.19.35-2.84,1.8-3.34"/><path class="cls-6" d="M96.8,35.42c1.58-.62,3.19-0.11,3.6,1.28,1.23,4.21-5.81,5.21-5.14.51a2.11,2.11,0,0,1,1.54-1.8"/><path class="cls-6" d="M84,35.68a2.41,2.41,0,0,1,3.34,1c1,2.89-3.6,4.95-4.62,2.06A2.38,2.38,0,0,1,84,35.68"/><path class="cls-6" d="M71.37,35.94a2,2,0,0,1,2.82,1c0.77,2.69-3.29,4.15-4.11,1.54-0.59-1.88.2-2.11,1.28-2.57"/><path class="cls-6" d="M58.79,36.19c1.15-.41,2.16,0,2.31,1.28,0.52,4.55-6.5.22-2.31-1.28"/><path class="cls-6" d="M45.44,38.76a1.47,1.47,0,0,1,2.05-2.06,1.47,1.47,0,0,1-2.05,2.06"/><path class="cls-6" d="M34.4,38c-0.51,0-.33.7-1,0.51A0.75,0.75,0,0,0,32.86,38a0.79,0.79,0,1,1,1.54,0"/><path class="cls-6" d="M142.51,40.81c2.78-.3,5.21,3.52,2.82,5.91-4.08,4.08-9.74-5.17-2.82-5.91"/><path class="cls-6" d="M158.94,45.69c-1.94,3.93-7.8,1.76-6.93-2.57,0.25-1.24,1.29-1.85,2.57-2.57,2.07,1.1,2.75,3.58,4.36,5.13"/><path class="cls-6" d="M129.15,41.07a3.24,3.24,0,0,1,4.11,2.82c0.26,4.43-6.68,5.08-6.68.26a2.82,2.82,0,0,1,2.57-3.08"/><path class="cls-6" d="M116.06,41.33c4.45-1.4,5.59,5.65,1.29,5.91-2.66.16-5.36-4.63-1.29-5.91"/><path class="cls-6" d="M103.22,41.59c2.55-.88,3.6.48,3.85,1.8,0.82,4.21-5,4.87-5.65,1.54-0.43-2.19.35-2.84,1.8-3.34"/><path class="cls-6" d="M90.38,41.84c1.58-.62,3.18-0.11,3.59,1.29,1.24,4.21-5.81,5.2-5.14.51a2.11,2.11,0,0,1,1.54-1.8"/><path class="cls-6" d="M77.54,42.1a2.41,2.41,0,0,1,3.34,1c1,2.89-3.6,4.95-4.62,2.05a2.38,2.38,0,0,1,1.28-3.08"/><path class="cls-6" d="M65,42.36a2,2,0,0,1,2.82,1c0.76,2.69-3.29,4.15-4.11,1.54-0.58-1.88.2-2.11,1.28-2.57"/><path class="cls-6" d="M52.37,42.61c1.15-.41,2.16,0,2.31,1.29,0.52,4.55-6.5.22-2.31-1.29"/><path class="cls-6" d="M39,45.18a1.47,1.47,0,0,1,2.06-2.05A1.47,1.47,0,0,1,39,45.18"/><path class="cls-6" d="M28,44.41c-0.51,0-.33.7-1,0.51a0.76,0.76,0,0,0-.51-0.51,0.79,0.79,0,1,1,1.54,0"/><path class="cls-6" d="M136.09,47.23c2.78-.3,5.21,3.52,2.82,5.91-4.08,4.08-9.74-5.17-2.82-5.91"/><path class="cls-6" d="M147.9,47.23c6.37-2,6.21,8.54,0,6.93-3.14-.81-3.08-5.94,0-6.93"/><path class="cls-6" d="M122.73,47.49a3.25,3.25,0,0,1,4.11,2.82c0.26,4.43-6.68,5.08-6.68.26,0-1.69.72-2.66,2.57-3.08"/><path class="cls-6" d="M109.64,47.75c4.45-1.4,5.59,5.65,1.28,5.91-2.66.16-5.35-4.62-1.28-5.91"/><path class="cls-6" d="M163.56,54.17c-4.47,1.68-7.08-4.34-3.85-6.68a18.53,18.53,0,0,1,3.85,6.68"/><path class="cls-6" d="M96.8,48c2.55-.88,3.6.48,3.85,1.8,0.82,4.21-5,4.87-5.65,1.54-0.43-2.19.35-2.84,1.8-3.34"/><path class="cls-6" d="M84,48.26c1.58-.62,3.19-0.11,3.59,1.29,1.24,4.2-5.81,5.21-5.14.51A2.1,2.1,0,0,1,84,48.26"/><path class="cls-6" d="M71.12,48.52a2.41,2.41,0,0,1,3.34,1c1,2.89-3.6,4.95-4.63,2.05a2.38,2.38,0,0,1,1.29-3.08"/><path class="cls-6" d="M58.54,48.78a2,2,0,0,1,2.82,1c0.77,2.69-3.29,4.15-4.11,1.54-0.58-1.88.2-2.12,1.29-2.57"/><path class="cls-6" d="M46,49c1.15-.41,2.16,0,2.31,1.29,0.52,4.55-6.5.22-2.31-1.29"/><path class="cls-6" d="M32.6,51.6a1.47,1.47,0,0,1,2.06-2.05A1.47,1.47,0,0,1,32.6,51.6"/><path class="cls-6" d="M21,49.8c0.56,0,.55.65,0.51,1.29a1.67,1.67,0,0,1-1.28.26c0.23-.54.78-0.76,0.77-1.54"/><path class="cls-6" d="M154.58,53.4c2.63-.65,4.65.61,4.88,3.08,0.48,5.21-8,6.48-7.7.26a3.36,3.36,0,0,1,2.83-3.34"/><path class="cls-6" d="M129.67,53.65c2.78-.3,5.21,3.52,2.82,5.91-4.09,4.09-9.74-5.17-2.82-5.91"/><path class="cls-6" d="M141.47,53.65c6.37-2,6.21,8.54,0,6.94-3.13-.81-3.08-5.95,0-6.94"/><path class="cls-6" d="M116.31,53.91a3.25,3.25,0,0,1,4.11,2.82c0.26,4.43-6.68,5.08-6.68.26,0-1.69.72-2.66,2.57-3.08"/><path class="cls-6" d="M103.22,54.17c4.45-1.4,5.58,5.65,1.28,5.91-2.66.16-5.35-4.63-1.28-5.91"/><path class="cls-6" d="M90.38,54.42c2.55-.88,3.59.49,3.85,1.8,0.82,4.21-5,4.87-5.65,1.54-0.43-2.19.35-2.84,1.8-3.34"/><path class="cls-6" d="M77.54,54.68c1.58-.62,3.18-0.11,3.6,1.28,1.24,4.21-5.81,5.21-5.14.51a2.1,2.1,0,0,1,1.54-1.8"/><path class="cls-6" d="M64.7,54.94A2.41,2.41,0,0,1,68,56c1,2.89-3.6,4.95-4.62,2.06a2.38,2.38,0,0,1,1.28-3.08"/><path class="cls-6" d="M52.11,55.2a2,2,0,0,1,2.83,1c0.76,2.69-3.29,4.15-4.11,1.54-0.58-1.88.2-2.11,1.28-2.57"/><path class="cls-6" d="M39.53,55.45c1.15-.41,2.16,0,2.31,1.28,0.52,4.56-6.5.22-2.31-1.28"/><path class="cls-6" d="M26.18,58A1.47,1.47,0,0,1,28.23,56,1.47,1.47,0,0,1,26.18,58"/><path class="cls-6" d="M164.59,56a18.28,18.28,0,0,1,2.05,4.37c-1.6-.54-2.25-2-2.05-4.37"/><path class="cls-6" d="M161.51,59.56c5.55-.85,5.94,7.7.77,8-4.4.23-6.16-7.13-.77-8"/><path class="cls-6" d="M148.15,59.82c2.63-.65,4.65.61,4.88,3.08,0.48,5.21-8,6.48-7.71.26a3.36,3.36,0,0,1,2.82-3.34"/><path class="cls-6" d="M123.24,60.07c2.79-.3,5.21,3.52,2.83,5.91-4.08,4.08-9.74-5.17-2.83-5.91"/><path class="cls-6" d="M135.06,60.07c6.37-2,6.21,8.54,0,6.93-3.14-.81-3.08-5.95,0-6.93"/><path class="cls-6" d="M109.89,60.33A3.24,3.24,0,0,1,114,63.15c0.26,4.43-6.67,5.08-6.67.26,0-1.69.72-2.66,2.57-3.08"/><path class="cls-6" d="M96.8,60.59c4.45-1.4,5.58,5.65,1.28,5.91-2.66.16-5.36-4.63-1.28-5.91"/><path class="cls-6" d="M84,60.84c2.55-.87,3.59.49,3.85,1.8,0.82,4.21-5,4.87-5.65,1.54-0.43-2.19.35-2.84,1.8-3.34"/><path class="cls-6" d="M71.12,61.1c1.58-.62,3.18-0.11,3.6,1.28,1.24,4.21-5.81,5.2-5.14.51a2.1,2.1,0,0,1,1.54-1.8"/><path class="cls-6" d="M58.28,61.36a2.41,2.41,0,0,1,3.34,1c1,2.89-3.6,4.95-4.62,2.06a2.38,2.38,0,0,1,1.28-3.08"/><path class="cls-6" d="M45.69,61.62a2,2,0,0,1,2.82,1c0.76,2.69-3.29,4.15-4.11,1.54-0.59-1.88.2-2.11,1.28-2.57"/><path class="cls-6" d="M33.11,61.87c1.15-.41,2.16,0,2.31,1.28,0.52,4.56-6.5.22-2.31-1.28"/><path class="cls-6" d="M19.76,64.44a1.47,1.47,0,0,1,2.05-2.06,1.47,1.47,0,0,1-2.05,2.06"/><path class="cls-6" d="M155.09,66c5.54-.86,5.94,7.7.77,8-4.41.23-6.16-7.13-.77-8"/><path class="cls-6" d="M168.7,65.72a73.29,73.29,0,0,1,2.05,7.7c-6.47,3.6-9.17-8.13-2.05-7.7"/><path class="cls-6" d="M141.73,66.24c2.63-.65,4.65.61,4.88,3.08,0.48,5.21-8,6.48-7.7.26a3.36,3.36,0,0,1,2.82-3.34"/><path class="cls-6" d="M116.83,66.49c2.78-.3,5.21,3.52,2.83,5.91-4.09,4.09-9.75-5.17-2.83-5.91"/><path class="cls-6" d="M128.64,66.49c6.37-2,6.21,8.54,0,6.93-3.14-.81-3.08-5.94,0-6.93"/><path class="cls-6" d="M103.47,66.75a3.25,3.25,0,0,1,4.11,2.82c0.26,4.43-6.68,5.08-6.68.26,0-1.69.72-2.66,2.57-3.08"/><path class="cls-6" d="M90.38,67c4.45-1.4,5.58,5.65,1.28,5.91-2.66.16-5.36-4.62-1.28-5.91"/><path class="cls-6" d="M77.54,67.26c2.55-.88,3.6.48,3.85,1.8,0.82,4.21-5,4.87-5.65,1.54-0.43-2.19.35-2.84,1.8-3.34"/><path class="cls-6" d="M64.7,67.52c1.58-.62,3.19-0.11,3.59,1.28,1.24,4.21-5.81,5.21-5.14.51a2.11,2.11,0,0,1,1.54-1.8"/><path class="cls-6" d="M51.86,67.78a2.41,2.41,0,0,1,3.34,1c1,2.89-3.6,4.95-4.62,2.05a2.38,2.38,0,0,1,1.29-3.08"/><path class="cls-6" d="M39.27,68a2,2,0,0,1,2.82,1c0.77,2.69-3.29,4.15-4.11,1.54-0.59-1.88.2-2.11,1.28-2.57"/><path class="cls-6" d="M26.69,68.29c1.15-.41,2.16,0,2.31,1.29,0.52,4.56-6.5.22-2.31-1.29"/><path class="cls-6" d="M15.65,69.06q0.4,2.46-2.06,2.05a1.46,1.46,0,1,1,2.06-2.05"/><path class="cls-6" d="M148.67,72.4c5.55-.85,5.94,7.7.77,8-4.4.23-6.16-7.13-.77-8"/><path class="cls-6" d="M160.74,72.4c3.07-.88,5.89,1.15,5.39,4.62-0.71,5-9.1,4.67-8.22-1.54a3.84,3.84,0,0,1,2.82-3.08"/><path class="cls-6" d="M135.31,72.66c2.63-.65,4.65.61,4.88,3.08,0.48,5.21-8,6.48-7.7.26a3.36,3.36,0,0,1,2.82-3.34"/><path class="cls-6" d="M110.41,72.91c2.78-.3,5.21,3.52,2.83,5.91-4.08,4.08-9.75-5.17-2.83-5.91"/><path class="cls-6" d="M122.22,72.91c6.37-2,6.2,8.54,0,6.93-3.14-.81-3.08-5.94,0-6.93"/><path class="cls-6" d="M97.05,73.17A3.25,3.25,0,0,1,101.16,76c0.26,4.43-6.68,5.08-6.68.26,0-1.69.72-2.66,2.57-3.08"/><path class="cls-6" d="M84,73.43c4.45-1.4,5.58,5.65,1.28,5.91-2.66.16-5.36-4.63-1.28-5.91"/><path class="cls-6" d="M71.12,73.68c2.55-.88,3.6.48,3.85,1.8,0.82,4.21-5,4.87-5.65,1.54-0.43-2.19.35-2.84,1.8-3.34"/><path class="cls-6" d="M58.28,73.94c1.58-.62,3.19-0.11,3.59,1.29,1.24,4.21-5.81,5.2-5.14.51a2.11,2.11,0,0,1,1.54-1.8"/><path class="cls-6" d="M45.44,74.2a2.41,2.41,0,0,1,3.34,1c1,2.88-3.6,4.95-4.62,2.05a2.38,2.38,0,0,1,1.29-3.08"/><path class="cls-6" d="M32.86,74.45a2,2,0,0,1,2.82,1c0.77,2.69-3.29,4.15-4.11,1.54-0.58-1.88.2-2.11,1.28-2.57"/><path class="cls-6" d="M20.27,74.71c1.15-.41,2.16,0,2.31,1.28,0.52,4.55-6.5.22-2.31-1.28"/><path class="cls-6" d="M170.75,74.71c0.91,0.89.78,2.82,1,4.36-1.13-.86-1.43-2.66-1-4.36"/><path class="cls-6" d="M172,80.11a34.55,34.55,0,0,0,.52,4.11c-1.86,4.42-8.48,3-8.48-1.54,0-3.81,5.18-5.93,8-2.57"/><path class="cls-6" d="M142.25,78.82c5.54-.85,5.94,7.7.77,8-4.4.23-6.16-7.13-.77-8"/><path class="cls-6" d="M154.32,78.82c3.07-.88,5.88,1.15,5.39,4.62-0.71,5-9.1,4.66-8.22-1.54a3.83,3.83,0,0,1,2.82-3.08"/><path class="cls-6" d="M128.89,79.08c2.63-.65,4.65.61,4.88,3.08,0.48,5.21-8,6.48-7.7.26a3.36,3.36,0,0,1,2.82-3.34"/><path class="cls-6" d="M104,79.33c2.79-.3,5.21,3.52,2.83,5.91-4.09,4.08-9.74-5.17-2.83-5.91"/><path class="cls-6" d="M115.8,79.33c6.37-2,6.21,8.54,0,6.93-3.14-.81-3.08-5.94,0-6.93"/><path class="cls-6" d="M90.63,79.59a3.25,3.25,0,0,1,4.11,2.82c0.26,4.43-6.68,5.08-6.68.26,0-1.69.72-2.66,2.57-3.08"/><path class="cls-6" d="M77.54,79.85c4.45-1.4,5.58,5.65,1.28,5.91-2.66.16-5.36-4.63-1.28-5.91"/><path class="cls-6" d="M64.7,80.11c2.55-.88,3.59.48,3.85,1.8,0.82,4.21-5,4.87-5.65,1.54-0.43-2.19.35-2.84,1.8-3.34"/><path class="cls-6" d="M51.86,80.36c1.58-.62,3.18-0.11,3.59,1.29,1.24,4.21-5.81,5.2-5.14.51a2.11,2.11,0,0,1,1.54-1.8"/><path class="cls-6" d="M39,80.62a2.41,2.41,0,0,1,3.34,1c1,2.89-3.6,4.95-4.62,2.05A2.38,2.38,0,0,1,39,80.62"/><path class="cls-6" d="M26.44,80.87a2,2,0,0,1,2.82,1C30,84.59,26,86.05,25.15,83.44c-0.58-1.88.2-2.12,1.29-2.57"/><path class="cls-6" d="M13.85,81.13c1.15-.41,2.16,0,2.31,1.28,0.52,4.56-6.5.22-2.31-1.28"/><path class="cls-6" d="M161.25,85a4.34,4.34,0,0,1,5.14,3.85c0.26,5.85-8.73,6.13-8.73.26,0-2.43,1.31-3.7,3.59-4.11"/><path class="cls-6" d="M135.83,85.24c5.55-.85,5.94,7.7.77,8-4.41.23-6.16-7.13-.77-8"/><path class="cls-6" d="M147.9,85.24c3.08-.88,5.89,1.15,5.39,4.62-0.71,5-9.1,4.67-8.22-1.54a3.84,3.84,0,0,1,2.82-3.08"/><path class="cls-6" d="M122.48,85.5c2.63-.65,4.65.61,4.88,3.08,0.48,5.21-8,6.48-7.7.26a3.36,3.36,0,0,1,2.82-3.34"/><path class="cls-6" d="M97.57,85.75c2.79-.3,5.21,3.52,2.83,5.91-4.09,4.09-9.75-5.17-2.83-5.91"/><path class="cls-6" d="M109.38,85.75c6.37-2,6.21,8.54,0,6.93-3.13-.81-3.08-5.94,0-6.93"/><path class="cls-6" d="M172.55,85.5a65.7,65.7,0,0,1,.26,6.93c0.07,0.46-.25.53-0.26,0.26-2.72-.69-2.72-6.5,0-7.19"/><path class="cls-6" d="M84.21,86a3.25,3.25,0,0,1,4.11,2.82c0.26,4.43-6.68,5.08-6.68.26,0-1.69.72-2.66,2.57-3.08"/><path class="cls-6" d="M71.12,86.27c4.45-1.4,5.58,5.65,1.28,5.91-2.66.16-5.36-4.62-1.28-5.91"/><path class="cls-6" d="M58.28,86.52c2.55-.88,3.59.48,3.85,1.8,0.82,4.21-5,4.87-5.65,1.54-0.43-2.19.35-2.84,1.8-3.34"/><path class="cls-6" d="M45.44,86.78c1.58-.62,3.19-0.11,3.6,1.28,1.24,4.21-5.81,5.2-5.14.51a2.11,2.11,0,0,1,1.54-1.8"/><path class="cls-6" d="M32.6,87a2.41,2.41,0,0,1,3.34,1c1,2.89-3.6,4.95-4.62,2.05A2.38,2.38,0,0,1,32.6,87"/><path class="cls-6" d="M20,87.29a2,2,0,0,1,2.82,1c0.76,2.69-3.29,4.15-4.11,1.54-0.59-1.88.2-2.11,1.28-2.57"/><path class="cls-6" d="M154.83,91.4A4.34,4.34,0,0,1,160,95.25c0.26,5.85-8.73,6.12-8.73.26,0-2.43,1.31-3.69,3.59-4.11"/><path class="cls-6" d="M129.41,91.66c5.54-.85,5.94,7.7.77,8-4.41.23-6.16-7.13-.77-8"/><path class="cls-6" d="M141.47,91.66c3.08-.88,5.89,1.15,5.4,4.62-0.71,5-9.1,4.67-8.22-1.54a3.84,3.84,0,0,1,2.82-3.08"/><path class="cls-6" d="M116.06,91.92c2.63-.65,4.65.61,4.88,3.08,0.48,5.21-8,6.48-7.7.26a3.35,3.35,0,0,1,2.82-3.34"/><path class="cls-6" d="M91.15,92.17c2.78-.3,5.21,3.52,2.83,5.91-4.08,4.08-9.75-5.17-2.83-5.91"/><path class="cls-6" d="M103,92.17c6.37-2,6.2,8.54,0,6.93-3.13-.81-3.08-5.94,0-6.93"/><path class="cls-6" d="M77.79,92.43a3.24,3.24,0,0,1,4.11,2.82c0.26,4.43-6.68,5.08-6.68.26,0-1.69.72-2.66,2.57-3.08"/><path class="cls-6" d="M64.7,92.69c4.45-1.4,5.59,5.65,1.29,5.91-2.66.16-5.36-4.62-1.29-5.91"/><path class="cls-6" d="M51.86,92.94c2.55-.88,3.59.48,3.85,1.8,0.82,4.21-5,4.87-5.65,1.54-0.43-2.19.35-2.84,1.8-3.34"/><path class="cls-6" d="M39,93.2c1.58-.62,3.19-0.11,3.6,1.28,1.24,4.21-5.81,5.21-5.14.51A2.11,2.11,0,0,1,39,93.2"/><path class="cls-6" d="M26.18,93.46a2.41,2.41,0,0,1,3.34,1c1,2.89-3.6,4.95-4.62,2.05a2.38,2.38,0,0,1,1.28-3.08"/><path class="cls-6" d="M13.6,93.71a2,2,0,0,1,2.82,1c0.76,2.69-3.29,4.15-4.11,1.54-0.59-1.87.2-2.11,1.28-2.57"/><path class="cls-6" d="M148.41,97.82a4.34,4.34,0,0,1,5.13,3.85c0.27,5.85-8.73,6.12-8.73.26,0-2.43,1.31-3.69,3.59-4.11"/><path class="cls-6" d="M123,98.08c5.54-.85,5.94,7.7.77,8-4.41.23-6.16-7.13-.77-8"/><path class="cls-6" d="M135.06,98.08c3.07-.88,5.89,1.15,5.39,4.62-0.71,5-9.1,4.67-8.22-1.54a3.84,3.84,0,0,1,2.82-3.08"/><path class="cls-6" d="M109.64,98.34c2.63-.65,4.65.61,4.88,3.08,0.48,5.21-8,6.48-7.7.26a3.35,3.35,0,0,1,2.82-3.34"/><path class="cls-6" d="M84.73,98.59c2.78-.3,5.21,3.52,2.82,5.91-4.08,4.08-9.74-5.17-2.82-5.91"/><path class="cls-6" d="M96.54,98.59c6.37-2,6.2,8.54,0,6.93-3.14-.81-3.08-5.94,0-6.93"/><path class="cls-6" d="M71.37,98.85a3.25,3.25,0,0,1,4.11,2.82c0.26,4.43-6.68,5.08-6.68.26,0-1.69.72-2.66,2.57-3.08"/><path class="cls-6" d="M58.28,99.11c4.45-1.4,5.59,5.65,1.29,5.91-2.66.16-5.36-4.63-1.29-5.91"/><path class="cls-6" d="M45.44,99.36c2.55-.88,3.6.48,3.85,1.8,0.82,4.21-5,4.87-5.65,1.54-0.43-2.19.35-2.84,1.8-3.34"/><path class="cls-6" d="M32.6,99.62c1.58-.62,3.19-0.11,3.6,1.28,1.24,4.2-5.81,5.21-5.14.51a2.1,2.1,0,0,1,1.54-1.8"/><path class="cls-6" d="M19.76,99.88a2.41,2.41,0,0,1,3.34,1c1,2.89-3.6,4.95-4.62,2.05a2.38,2.38,0,0,1,1.29-3.08"/><path class="cls-6" d="M142,104.24a4.34,4.34,0,0,1,5.14,3.85c0.26,5.85-8.73,6.12-8.73.26,0-2.43,1.31-3.7,3.59-4.11"/><path class="cls-6" d="M116.57,104.5c5.55-.85,5.94,7.7.77,8-4.41.23-6.16-7.13-.77-8"/><path class="cls-6" d="M128.64,104.5c3.08-.88,5.89,1.15,5.39,4.62-0.71,5-9.1,4.66-8.21-1.54a3.83,3.83,0,0,1,2.82-3.08"/><path class="cls-6" d="M103.22,104.75c2.63-.65,4.65.61,4.88,3.08,0.48,5.21-8,6.48-7.7.26a3.36,3.36,0,0,1,2.82-3.34"/><path class="cls-6" d="M78.31,105c2.78-.3,5.21,3.52,2.82,5.91C77,115,71.39,105.75,78.31,105"/><path class="cls-6" d="M90.12,105c6.37-2.05,6.21,8.54,0,6.93C87,111.13,87,106,90.12,105"/><path class="cls-6" d="M65,105.27a3.24,3.24,0,0,1,4.11,2.82c0.26,4.43-6.68,5.08-6.68.26,0-1.69.72-2.65,2.57-3.08"/><path class="cls-6" d="M51.86,105.53c4.45-1.4,5.59,5.65,1.28,5.9-2.66.16-5.36-4.62-1.28-5.9"/><path class="cls-6" d="M39,105.78c2.55-.88,3.6.49,3.85,1.8,0.82,4.21-5,4.87-5.65,1.54-0.43-2.19.35-2.84,1.8-3.34"/><path class="cls-6" d="M26.18,106c1.58-.62,3.18-0.11,3.6,1.28,1.24,4.21-5.81,5.21-5.14.51a2.11,2.11,0,0,1,1.54-1.8"/><path class="cls-6" d="M13.34,106.3a2.41,2.41,0,0,1,3.34,1c1,2.89-3.6,4.95-4.62,2.06a2.38,2.38,0,0,1,1.28-3.08"/><path class="cls-6" d="M135.57,110.66a4.33,4.33,0,0,1,5.13,3.85c0.27,5.84-8.73,6.12-8.73.26,0-2.43,1.31-3.7,3.6-4.11"/><path class="cls-6" d="M110.15,110.92c5.54-.86,5.94,7.7.77,8-4.4.23-6.16-7.13-.77-8"/><path class="cls-6" d="M122.22,110.92c3.07-.87,5.89,1.15,5.39,4.62-0.71,5-9.1,4.67-8.22-1.54a3.83,3.83,0,0,1,2.82-3.08"/><path class="cls-6" d="M96.8,111.18c2.63-.65,4.65.61,4.88,3.08,0.48,5.21-8,6.47-7.7.25a3.36,3.36,0,0,1,2.82-3.34"/><path class="cls-6" d="M71.89,111.43c2.78-.3,5.21,3.52,2.82,5.91-4.08,4.08-9.74-5.17-2.82-5.91"/><path class="cls-6" d="M83.7,111.43c6.37-2,6.2,8.54,0,6.93-3.14-.81-3.08-5.94,0-6.93"/><path class="cls-6" d="M58.54,111.69a3.25,3.25,0,0,1,4.11,2.82c0.26,4.43-6.68,5.08-6.68.26,0-1.69.72-2.66,2.57-3.08"/><path class="cls-6" d="M45.44,111.95c4.45-1.4,5.58,5.65,1.28,5.9-2.66.16-5.36-4.62-1.28-5.9"/><path class="cls-6" d="M32.6,112.2c2.55-.87,3.6.49,3.85,1.8,0.82,4.21-5,4.87-5.65,1.54-0.43-2.19.35-2.85,1.8-3.34"/><path class="cls-6" d="M19.76,112.46c1.58-.62,3.18-0.11,3.59,1.28,1.24,4.21-5.81,5.21-5.14.51a2.11,2.11,0,0,1,1.54-1.8"/><path class="cls-6" d="M129.15,117.08a4.34,4.34,0,0,1,5.13,3.85c0.26,5.85-8.73,6.12-8.73.25,0-2.42,1.31-3.69,3.59-4.11"/><path class="cls-6" d="M103.73,117.34c5.55-.86,5.94,7.69.77,8-4.41.22-6.16-7.13-.77-8"/><path class="cls-6" d="M115.8,117.34c3.08-.88,5.89,1.15,5.39,4.62-0.71,5-9.1,4.67-8.22-1.54a3.83,3.83,0,0,1,2.82-3.08"/><path class="cls-6" d="M90.38,117.6c2.63-.65,4.65.61,4.88,3.08,0.48,5.21-8,6.47-7.7.26a3.36,3.36,0,0,1,2.82-3.34"/><path class="cls-6" d="M65.47,117.85c2.78-.29,5.21,3.52,2.82,5.91-4.08,4.08-9.74-5.17-2.82-5.91"/><path class="cls-6" d="M77.28,117.85c6.37-2,6.2,8.54,0,6.93-3.14-.81-3.08-5.94,0-6.93"/><path class="cls-6" d="M52.11,118.11a3.25,3.25,0,0,1,4.11,2.82c0.26,4.43-6.68,5.08-6.68.26,0-1.69.72-2.66,2.57-3.08"/><path class="cls-6" d="M39,118.37c4.45-1.4,5.59,5.65,1.29,5.91-2.66.15-5.36-4.63-1.29-5.91"/><path class="cls-6" d="M26.18,118.62c2.55-.88,3.6.48,3.85,1.8,0.82,4.21-5,4.87-5.65,1.54-0.43-2.19.35-2.84,1.8-3.34"/><path class="cls-6" d="M14.62,118.62c2.19-.17,2.93,2.79,1.8,4.37a14.23,14.23,0,0,1-1.8-4.37"/><path class="cls-6" d="M122.73,123.5a4.34,4.34,0,0,1,5.13,3.85c0.26,5.85-8.73,6.12-8.73.26,0-2.43,1.31-3.69,3.6-4.11"/><path class="cls-6" d="M97.31,123.76c5.55-.86,5.94,7.69.77,8-4.41.23-6.16-7.13-.77-8"/><path class="cls-6" d="M109.38,123.76c3.07-.88,5.89,1.15,5.4,4.62-0.71,5-9.1,4.67-8.22-1.54a3.83,3.83,0,0,1,2.82-3.08"/><path class="cls-6" d="M84,124c2.63-.65,4.65.61,4.88,3.08,0.48,5.21-8,6.48-7.7.26A3.36,3.36,0,0,1,84,124"/><path class="cls-6" d="M59,124.27c2.79-.29,5.21,3.52,2.83,5.91-4.08,4.08-9.75-5.17-2.83-5.91"/><path class="cls-6" d="M70.86,124.27c6.37-2,6.2,8.54,0,6.93-3.14-.81-3.08-5.94,0-6.93"/><path class="cls-6" d="M45.69,124.53a3.25,3.25,0,0,1,4.11,2.83c0.26,4.42-6.68,5.08-6.68.25a2.82,2.82,0,0,1,2.57-3.08"/><path class="cls-6" d="M32.6,124.78c4.45-1.4,5.59,5.65,1.29,5.91-2.66.15-5.36-4.63-1.29-5.91"/><path class="cls-6" d="M18,126.58c1.1-1.63,2.35-2.19,3.85-1.8,3.13,0.83,2,6.59-1.54,5.65-1.44-.38-1.43-2.4-2.31-3.85"/><path class="cls-6" d="M116.31,129.92a4.34,4.34,0,0,1,5.13,3.85c0.26,5.85-8.73,6.12-8.73.26,0-2.43,1.31-3.7,3.6-4.11"/><path class="cls-6" d="M90.89,130.18c5.55-.85,5.94,7.7.77,8-4.41.23-6.16-7.13-.77-8"/><path class="cls-6" d="M103,130.18c3.07-.87,5.89,1.15,5.39,4.62-0.7,5-9.1,4.67-8.22-1.54a3.83,3.83,0,0,1,2.82-3.08"/><path class="cls-6" d="M77.54,130.44c2.63-.65,4.65.61,4.88,3.08,0.48,5.21-8,6.48-7.7.26a3.36,3.36,0,0,1,2.82-3.34"/><path class="cls-6" d="M52.63,130.69c2.78-.3,5.21,3.52,2.82,5.91-4.08,4.08-9.74-5.17-2.82-5.91"/><path class="cls-6" d="M64.44,130.69c6.37-2,6.21,8.54,0,6.93-3.14-.81-3.08-5.94,0-6.93"/><path class="cls-6" d="M39.27,130.95a3.25,3.25,0,0,1,4.11,2.82c0.26,4.43-6.68,5.08-6.68.26,0-1.69.72-2.66,2.57-3.08"/><path class="cls-6" d="M26.18,131.2c4.45-1.4,5.58,5.65,1.28,5.91-2.66.15-5.36-4.63-1.28-5.91"/><path class="cls-6" d="M109.89,136.34A4.34,4.34,0,0,1,115,140.2c0.26,5.84-8.73,6.12-8.73.26,0-2.43,1.31-3.7,3.59-4.11"/><path class="cls-6" d="M84.47,136.6c5.55-.85,5.94,7.7.77,8-4.41.23-6.16-7.13-.77-8"/><path class="cls-6" d="M96.54,136.6c3.07-.87,5.89,1.15,5.39,4.62-0.71,5-9.1,4.67-8.21-1.54a3.84,3.84,0,0,1,2.82-3.08"/><path class="cls-6" d="M71.12,136.85c2.63-.65,4.65.61,4.88,3.08,0.48,5.21-8,6.48-7.7.26a3.36,3.36,0,0,1,2.82-3.34"/><path class="cls-6" d="M46.21,137.11c2.78-.3,5.21,3.52,2.83,5.9-4.08,4.08-9.74-5.17-2.83-5.9"/><path class="cls-6" d="M58,137.11c6.37-2.05,6.2,8.53,0,6.93-3.14-.81-3.08-5.94,0-6.93"/><path class="cls-6" d="M32.86,137.37A3.25,3.25,0,0,1,37,140.2c0.26,4.42-6.68,5.08-6.68.26a2.82,2.82,0,0,1,2.57-3.08"/><path class="cls-6" d="M103.47,142.76a4.34,4.34,0,0,1,5.14,3.85c0.26,5.84-8.73,6.12-8.73.26,0-2.43,1.31-3.7,3.59-4.11"/><path class="cls-6" d="M78,143c5.55-.85,5.94,7.7.77,8-4.41.23-6.16-7.13-.77-8"/><path class="cls-6" d="M90.12,143c3.07-.88,5.89,1.15,5.39,4.62-0.71,5-9.1,4.66-8.21-1.54A3.83,3.83,0,0,1,90.12,143"/><path class="cls-6" d="M64.7,143.28c2.63-.65,4.65.61,4.88,3.08,0.48,5.21-8,6.48-7.7.26a3.36,3.36,0,0,1,2.82-3.34"/><path class="cls-6" d="M39.79,143.53c2.78-.3,5.21,3.52,2.83,5.91-4.08,4.08-9.74-5.17-2.83-5.91"/><path class="cls-6" d="M51.6,143.53c6.37-2,6.21,8.54,0,6.94-3.14-.81-3.08-5.94,0-6.94"/><path class="cls-6" d="M97.05,149.18a4.34,4.34,0,0,1,5.14,3.85c0.26,5.84-8.73,6.12-8.73.26,0-2.43,1.31-3.7,3.59-4.11"/><path class="cls-6" d="M71.63,149.44c5.55-.85,5.94,7.7.77,8-4.41.23-6.16-7.13-.77-8"/><path class="cls-6" d="M83.7,149.44c3.07-.88,5.89,1.15,5.39,4.62-0.71,5-9.1,4.67-8.22-1.54a3.83,3.83,0,0,1,2.82-3.08"/><path class="cls-6" d="M58.28,149.69c2.63-.65,4.65.61,4.88,3.08,0.48,5.21-8,6.48-7.7.26a3.36,3.36,0,0,1,2.82-3.34"/><path class="cls-6" d="M45.18,150c6.37-2,6.21,8.54,0,6.93-3.14-.81-3.08-5.94,0-6.93"/><path class="cls-6" d="M90.63,155.6a4.34,4.34,0,0,1,5.13,3.85c0.26,5.85-8.73,6.12-8.73.26,0-2.43,1.31-3.69,3.59-4.11"/><path class="cls-6" d="M65.21,155.86c5.55-.85,5.94,7.7.77,8-4.41.23-6.16-7.13-.77-8"/><path class="cls-6" d="M77.28,155.86c3.07-.87,5.89,1.15,5.39,4.62-0.71,5-9.1,4.66-8.22-1.54a3.84,3.84,0,0,1,2.82-3.08"/><path class="cls-6" d="M53.65,163.56c-1.49-1.27-4.15-1.32-4.62-3.08-1.07-4,4.35-5.92,6.68-3.6,2.15,2.15,1,5.7-2.06,6.68"/><path class="cls-6" d="M84.21,162a4.34,4.34,0,0,1,5.13,3.85c0.27,5.85-8.73,6.13-8.73.26,0-2.43,1.31-3.7,3.6-4.11"/><path class="cls-6" d="M70.86,162.28c3.07-.87,5.89,1.15,5.39,4.62-0.71,5-9.1,4.67-8.22-1.54a3.83,3.83,0,0,1,2.82-3.08"/><path class="cls-6" d="M62.9,167.67a64.61,64.61,0,0,1-7.19-3.08c1.27-4.29,9.57-2.14,7.19,3.08"/><path class="cls-6" d="M82.93,172.29A46.15,46.15,0,0,1,74.71,171c1-4.26,8.23-3.11,8.22,1.29"/><path class="cls-6" d="M95.77,172.55a30.59,30.59,0,0,1-8.73,0c-0.58-5.72,9.31-5.72,8.73,0"/><path class="cls-6" d="M65.47,168.7c0.83-.73,2.13.26,2.82,0.51-0.67.58-1.72-.66-2.82-0.51"/><path class="cls-6" d="M148.15,173.32H150v-1.8c-0.74,0-1.68.14-2.05-.26a4.82,4.82,0,0,1,.26,2.06m-6.94-5.91c0.9-.46,2.36,0,2.83-0.26-0.62-.47-0.15-2,0-2.57a4.37,4.37,0,0,1-2.83,0,5.73,5.73,0,0,1,0,2.82m-6.42-5.9c0.84-.71,1.89-0.39,3.08-0.26a6.81,6.81,0,0,1,0-3.34,5.93,5.93,0,0,1-3.6-.25c0.74,1.23.07,2.73,0.52,3.85m-13.61.26a6.2,6.2,0,0,1,4.36,0c-0.91-1.41.07-3.21-.26-4.36-1,1.26-3.81-.1-4.37,0,1,0.79,1,3.3.26,4.36M141,154.83a6.83,6.83,0,0,1,3.34,0c-0.21-1.24.31-3.1,0-3.59-1,.83-2.44.33-3.6,0a5.94,5.94,0,0,1,.26,3.59m-13.35.52a6.16,6.16,0,0,1,4.36,0c-0.91-1.41.07-3.21-.26-4.37-1,1.26-3.81-.1-4.37,0,1,0.79,1,3.3.26,4.37m6.42-6.42a6.16,6.16,0,0,1,4.36,0c-0.91-1.41.07-3.21-.26-4.37-1,1.26-3.81-.11-4.36,0,1,0.79,1,3.3.26,4.37m6.42-6.42a6.18,6.18,0,0,1,4.37,0c-0.91-1.41.06-3.21-.26-4.37-1,1.26-3.8-.1-4.36,0,1,0.79,1,3.3.26,4.37m6.42-6.42a6.16,6.16,0,0,1,4.37,0c-0.91-1.42.06-3.21-.26-4.37-1,1.26-3.81-.1-4.36,0,1,0.78,1,3.3.26,4.37m6.42-6.42a6.18,6.18,0,0,1,4.37,0c-0.91-1.42.06-3.21-.26-4.37-1,1.26-3.81-.1-4.36,0,1,0.78,1,3.3.26,4.37m6.42-6.42a6.19,6.19,0,0,1,4.36,0,5,5,0,0,1,.26-4.37c-1.38,1-4.11.14-4.88,0,1,0.79,1,3.3.26,4.37m-9,21.57c-1,.83-2.44.32-3.59,0a4.57,4.57,0,0,1,0,3.85,11,11,0,0,1,3.59-.26c-0.2-1.24.31-3.1,0-3.59M172,98.08c0.62-.35.6,1.4,0.52,2.82-0.22,3.63-1.29,8.53-1.8,11.56-1.26.59-3.72,0.84-4.62-.26,0,0.66,1.14,3.42,0,4.62,0.59,0.22,2.22-.84,3.34-0.26a59.87,59.87,0,0,1-6.94,15.92A11.24,11.24,0,0,1,160,132c0.32,1.16.82,2.61,0,3.6,0,0.3.47,0.22,0.77,0.26-1,1.79-2.42,3.22-3.34,5.13-0.64-.41-0.1-1.8,0-2.31-0.67-.16-2.59.61-3.59-0.26-0.3.86,0.7,2.74-.26,3.85a7.41,7.41,0,0,1,2.82-.26,84.23,84.23,0,0,1-10.53,11.3c0.78,2.15,2.48,4.68,1.8,7.45,0.22,0.75.65-.33,1.28,0,1.6,5.51,4.06,10.15,5.65,15.66-8-3.22-15.39-7-23.36-10.27a9.75,9.75,0,0,1,.51-1.8c-5-.71-8.15,2.09-12.33,3.6-1.14-.78-0.64-2.65-0.26-3.85-0.81.11-3.66,0.57-4.62-.52a4.63,4.63,0,0,1,.26,4.63,18.15,18.15,0,0,1,3.85-.26c-3.09.94-7.47,3.51-10.53,2.05,0.22,0.21.15,0.71,0.51,0.77a37.66,37.66,0,0,1-9,1.54,5.23,5.23,0,0,1,1-2.57c-6,4.47-10.49-6.6-4.11-8a4.55,4.55,0,0,1,4.88,6.94c0.8-.4,4-1.34,5.39,0a4.81,4.81,0,0,1,0-5.14c-2.51,1.29-6.38.05-6.94-2.56-1.78-8.34,12.42-6.56,8,1.28,1.3-.69,4-1.29,5.13,0-0.22-.83-1-4,0.26-5.14-2.69,1.19-6.32.31-6.94-2.57a4.63,4.63,0,0,1,5.65-5.65c2.34,0.5,4.26,4.11,2.31,6.93,1.43-.82,4.05-1.12,5.39,0a4.79,4.79,0,0,1,0-5.13c-2.69,1.18-6.32.31-6.93-2.57a4.63,4.63,0,0,1,5.65-5.65c2.34,0.5,4.26,4.11,2.31,6.93,1.43-.82,4-1.12,5.39,0a4.8,4.8,0,0,1,0-5.14c-7.64,4.26-9.83-10-1.28-8.21,2.34,0.5,4.26,4.12,2.31,6.93,1.42-.82,4-1.12,5.39,0a4.78,4.78,0,0,1,0-5.14c-2.51,1.29-6.37.05-6.94-2.57-1.78-8.34,12.42-6.56,8,1.28,1.3-.69,4-1.28,5.14,0-0.22-.83-1-4,0.26-5.13-3.61,1.7-7.85-.87-6.94-5.14,1.28-6,12.12-2.43,8,3.85,1.42-.82,4-1.12,5.39,0a4.79,4.79,0,0,1,0-5.13c-2.51,1.29-6.37.05-6.94-2.57-1.78-8.34,12.42-6.56,8,1.28,1.3-.69,4-1.28,5.14,0-0.22-.83-1-4,0.25-5.13-3.61,1.7-7.84-.87-6.93-5.14,1.27-6,12.11-2.43,8,3.85,1.43-.82,4.05-1.12,5.39,0a4.8,4.8,0,0,1,0-5.13c-2.69,1.18-6.32.31-6.93-2.57a4.63,4.63,0,0,1,5.65-5.65c2.34,0.5,4.26,4.12,2.31,6.93,1.43-.82,4.05-1.12,5.39,0-1.09-1.32-1-4.32.26-5.39-2.46,2-6.71-.06-7.19-2.31s0.72-5.15,3.08-5.65a4.54,4.54,0,0,1,4.88,6.93c0.62-.28,4-1.56,5.14,0-0.28-1-1-4.29.51-5.39-1.16.41-2.13,1.21-4.11,0.77-4.61-1-4-10.12,2.57-8.73,1.79,0.38,4.52,4,2.31,6.93"/><path class="cls-6" d="M35.42,150.46a3.88,3.88,0,0,1,1,1c0.16,0.25-.49-0.22-1-1"/><path class="cls-7" d="M145.32,90.5c-3.89-4.06-10.33-6.21-18.59-6.21H50.11V91h76.62c6.3,0,11.18,1.47,13.74,4.14a7.47,7.47,0,0,1,2.06,5.86,7.11,7.11,0,0,1-2.31,5.28c-3.88,3.5-11.33,3.13-11.39,3.13H36.61v6.71h92c0.2,0,10.08.58,16.11-4.84a13.69,13.69,0,0,0,4.52-10,14.27,14.27,0,0,0-3.92-10.79"/><path class="cls-7" d="M53.26,103.49v0.09h76.63V96.87h-74c-6.3,0-11.18-1.47-13.74-4.14a7.55,7.55,0,0,1-2.06-5.86,7.13,7.13,0,0,1,2.3-5.28c3.88-3.49,11.33-3.12,11.4-3.13H147.1V71.74H54c-0.22,0-10.09-.57-16.11,4.85a13.7,13.7,0,0,0-4.52,10,14.35,14.35,0,0,0,3.93,10.79c3.47,3.61,9,5.7,15.94,6.11"/><path class="cls-8" d="M145.2,88.74c-3.9-4.06-10.33-6.21-18.59-6.21H50v6.71h76.62c6.3,0,11.19,1.47,13.74,4.14a7.46,7.46,0,0,1,2.06,5.86,7.12,7.12,0,0,1-2.31,5.28c-3.88,3.5-11.33,3.14-11.39,3.13H36.48v6.71h92c0.2,0,10.08.57,16.11-4.85a13.68,13.68,0,0,0,4.52-10,14.28,14.28,0,0,0-3.92-10.78"/><path class="cls-8" d="M53.13,101.73v0.09h76.62V95.11h-74C49.48,95.11,44.6,93.64,42,91A7.55,7.55,0,0,1,40,85.11a7.13,7.13,0,0,1,2.3-5.29c3.88-3.49,11.33-3.12,11.41-3.13H147V70H53.9c-0.22,0-10.09-.57-16.11,4.85a13.69,13.69,0,0,0-4.53,10,14.35,14.35,0,0,0,3.93,10.79c3.47,3.61,9,5.7,15.94,6.12"/><g class="cls-4"><path class="cls-9" d="M172.63,91.32a81.38,81.38,0,1,0-45.18,72.82l1.59,0.71,25.51,11.48-8.85-23.15c16-14.28,26.2-34.12,26.88-56.16,0-.78.06-1.56,0.06-2.35,0-.38,0-0.74,0-1.12,0-.75,0-1.49,0-2.24h0Z"/><path class="cls-10" d="M172.63,91.32a81.38,81.38,0,1,0-45.18,72.82l1.59,0.71,25.51,11.48-8.85-23.15c16-14.28,26.2-34.12,26.88-56.16,0-.78.06-1.56,0.06-2.35,0-.38,0-0.74,0-1.12,0-.75,0-1.49,0-2.24h0Z"/></g></svg>